<svg xmlns="http://www.w3.org/2000/svg" width="1800" height="2280" viewBox="0 0 1800 2280">
  <defs>
    <style>
      .bg { fill: #f6f7f4; }
      .title { font: 700 34px 'Microsoft YaHei', 'PingFang SC', sans-serif; fill: #102a43; }
      .subtitle { font: 500 18px 'Microsoft YaHei', 'PingFang SC', sans-serif; fill: #486581; }
      .box-title { font: 700 24px 'Microsoft YaHei', 'PingFang SC', sans-serif; fill: #102a43; }
      .box-text { font: 16px 'Microsoft YaHei', 'PingFang SC', sans-serif; fill: #243b53; }
      .note-title { font: 700 22px 'Microsoft YaHei', 'PingFang SC', sans-serif; fill: #7c2d12; }
      .note-text { font: 16px 'Microsoft YaHei', 'PingFang SC', sans-serif; fill: #7c2d12; }
      .legend { font: 15px 'Microsoft YaHei', 'PingFang SC', sans-serif; fill: #243b53; }
      .arrow { stroke: #486581; stroke-width: 3; fill: none; marker-end: url(#arrowhead); }
    </style>
    <marker id="arrowhead" markerWidth="10" markerHeight="10" refX="9" refY="5" orient="auto">
      <path d="M 0 0 L 10 5 L 0 10 z" fill="#486581" />
    </marker>
  </defs>

  <rect class="bg" x="0" y="0" width="1800" height="2280" />

  <text x="900" y="52" text-anchor="middle" class="title">影响力事件分发策略项目流程图</text>
  <text x="900" y="84" text-anchor="middle" class="subtitle">当前版本重点：默认使用 compact 数据集，最终输出采用 action_schema_v2 动作化 JSON</text>

  <rect x="90" y="120" rx="18" ry="18" width="980" height="150" fill="#edf6ff" stroke="#2f80ed" stroke-width="3"/>
  <text x="120" y="158" class="box-title">1. 输入层</text>
  <text x="120" y="190" class="box-text">输入：`main.py` 事件文本 / 事件文件，或 `run_eval.py` 的 `hot_event_opinion_variants.json`</text>
  <text x="120" y="220" class="box-text">方法：`load_event_input` `apply_overrides` `load_hot_events` `select_hot_events` `hot_event_to_pipeline_payload`</text>
  <text x="120" y="250" class="box-text">输出：统一 `pipeline_payload`，包含 event_id、描述、传播目标、约束条件</text>

  <rect x="90" y="320" rx="18" ry="18" width="980" height="190" fill="#fff4e5" stroke="#d97706" stroke-width="3"/>
  <text x="120" y="358" class="box-title">2. Event Parser</text>
  <text x="120" y="390" class="box-text">输入：事件描述文本 / 事件字典</text>
  <text x="120" y="420" class="box-text">方法：`parse` `_normalize_payload` `_parse_rule_based` `_infer_event_type` `_infer_target_goal` `_extract_keywords`</text>
  <text x="120" y="450" class="box-text">可选 LLM：`_apply_llm_parse`，增强 `semantic_tags` `narrative_frames` `target_roles` `dispatch_preferences`</text>
  <text x="120" y="480" class="box-text">输出：`ParsedEvent`</text>

  <rect x="1110" y="120" rx="18" ry="18" width="600" height="190" fill="#eefbf3" stroke="#2f855a" stroke-width="3"/>
  <text x="1140" y="158" class="box-title">数据源</text>
  <text x="1140" y="190" class="box-text">原始数据：`data/raw/*.graph.anon` `*_product_info.json`</text>
  <text x="1140" y="220" class="box-text">增强数据：`abc_reading_profile_with_neighbors.graph.anon`</text>
  <text x="1140" y="250" class="box-text">瘦身数据：`abc_reading_profile_compact.graph.anon`</text>
  <text x="1140" y="280" class="box-text">当前默认：`DataLoader` 优先读取 compact 数据集</text>

  <rect x="1110" y="350" rx="18" ry="18" width="600" height="220" fill="#eefbf3" stroke="#2f855a" stroke-width="3"/>
  <text x="1140" y="388" class="box-title">3. Data Loader</text>
  <text x="1140" y="420" class="box-text">方法：`load_profiles` `load_enriched_profiles` `load_interactions` `build_summary`</text>
  <text x="1140" y="450" class="box-text">当前读取策略：compact profile 优先，interaction 与 product_info 按需读取</text>
  <text x="1140" y="480" class="box-text">输出：`profiles` `enriched_profiles` `interactions` `product_context`</text>
  <text x="1140" y="510" class="box-text">作用：为后续特征构建提供较轻量、较稳定的数据输入</text>
  <text x="1140" y="540" class="box-text">说明：这一步不调用 LLM</text>

  <rect x="90" y="570" rx="18" ry="18" width="980" height="270" fill="#fff4e5" stroke="#d97706" stroke-width="3"/>
  <text x="120" y="608" class="box-title">4. Feature Builder / 候选召回</text>
  <text x="120" y="640" class="box-text">输入：`ParsedEvent` + `profiles` + `graph_attributes` + interaction source 标记</text>
  <text x="120" y="670" class="box-text">方法：`build_from_loader` `build_features` `_event_match_keywords` `_match_keywords` `_infer_role_hint`</text>
  <text x="120" y="700" class="box-text">规则特征：`matched_keywords` `topic_match_score` `influence_score` `diffusion_score` `activity_score` `stability_score`</text>
  <text x="120" y="730" class="box-text">候选池：`_candidate_pool_for_llm`，先做全量规则召回，再缩成较小候选池</text>
  <text x="120" y="760" class="box-text">可选 LLM：`_augment_with_llm`，补充事件语义相关度、受众适配、角色适配、风险冲突等分数</text>
  <text x="120" y="790" class="box-text">输出：`FeatureBuildResult` / `NodeFeature[]`</text>
  <text x="120" y="820" class="box-text">目标：降低“高影响力但主题不搭”的节点进入后续选人的概率</text>

  <rect x="90" y="890" rx="18" ry="18" width="980" height="210" fill="#eef4fb" stroke="#4c6f8c" stroke-width="3"/>
  <text x="120" y="928" class="box-title">5. Scorer / 综合打分与风险门控</text>
  <text x="120" y="960" class="box-text">方法：`score` `_compute_risk` `_semantic_gate` `_has_semantic_support` `_dispatch_weights`</text>
  <text x="120" y="990" class="box-text">计算：`raw_dispatch_score` `risk_score` `final_score` `eligible` `manual_review_required`</text>
  <text x="120" y="1020" class="box-text">输出：`ScoreResult` / `NodeScore[]`</text>
  <text x="120" y="1050" class="box-text">说明：主要是规则层，不直接调用 LLM，但会消费上一步的 LLM 语义特征</text>
  <text x="120" y="1080" class="box-text">作用：把不稳定、高风险、主题弱匹配节点拦在选人之前</text>

  <rect x="90" y="1150" rx="18" ry="18" width="980" height="220" fill="#fff4e5" stroke="#d97706" stroke-width="3"/>
  <text x="120" y="1188" class="box-title">6. Selector / 角色覆盖式选人</text>
  <text x="120" y="1220" class="box-text">方法：`select` `_preferred_roles` `_first_by_role` `_make_selected_node`</text>
  <text x="120" y="1250" class="box-text">分池：`safe_pool` `review_pool` `fallback_pool`</text>
  <text x="120" y="1280" class="box-text">可选 LLM：`_llm_selection_plan` `_reorder_pool_with_llm`，对 shortlist 重排并推荐角色</text>
  <text x="120" y="1310" class="box-text">输出：`SelectionResult`，包含 `selected_nodes` `fallback_nodes` 和角色分配</text>
  <text x="120" y="1340" class="box-text">角色：`core_publish_node` `interaction_response_node` `amplification_node` `support_node`</text>

  <rect x="90" y="1420" rx="18" ry="18" width="980" height="230" fill="#eef4fb" stroke="#4c6f8c" stroke-width="3"/>
  <text x="120" y="1458" class="box-title">7. Strategy Generator / 结构化策略编排</text>
  <text x="120" y="1490" class="box-text">方法：`generate` `_build_time_plan` `_build_frequency_plan` `_build_platform_plan` `_build_content_plan`</text>
  <text x="120" y="1520" class="box-text">节点编排：`_build_node_plan` `_build_stage_plans` `_build_risk_control` `_build_explainability`</text>
  <text x="120" y="1550" class="box-text">输出：`StrategyResult`，包含阶段计划、节点计划、时间窗、频率、平台、内容风格、风险控制</text>
  <text x="120" y="1580" class="box-text">说明：这里仍然以规则模板为主，不直接调用 LLM</text>
  <text x="120" y="1610" class="box-text">作用：把“选谁”翻译成“什么时候发、发几次、承担什么角色”</text>

  <rect x="90" y="1700" rx="18" ry="18" width="980" height="280" fill="#fff4e5" stroke="#d97706" stroke-width="3"/>
  <text x="120" y="1738" class="box-title">8. Eval Output / 最终动作化输出</text>
  <text x="120" y="1770" class="box-text">方法：`build_eval_output` `_build_content_publish_actions` `_build_audience_action_plan` `_build_coordination_action_plan`</text>
  <text x="120" y="1800" class="box-text">可选 LLM：`_build_llm_node_texts` 继续负责帖子正文、画像描述等自然语言字段</text>
  <text x="120" y="1830" class="box-text">新格式：`action_schema_v2`，每个节点输出四组动作：</text>
  <text x="120" y="1860" class="box-text">`内容发布动作` `受众互动动作` `数字人协同动作` `风险控制动作`</text>
  <text x="120" y="1890" class="box-text">动作字段：`动作类型` `触发条件` `目标对象` `执行参数` `目标结果`</text>
  <text x="120" y="1920" class="box-text">输出文件：`eval/output/*_strategy_output.json`</text>
  <text x="120" y="1950" class="box-text">目标：让点赞、评论、回复、转发、监测、暂停等动作可以直接对接后续执行器</text>

  <line x1="580" y1="270" x2="580" y2="320" class="arrow"/>
  <line x1="580" y1="510" x2="580" y2="570" class="arrow"/>
  <line x1="580" y1="840" x2="580" y2="890" class="arrow"/>
  <line x1="580" y1="1100" x2="580" y2="1150" class="arrow"/>
  <line x1="580" y1="1370" x2="580" y2="1420" class="arrow"/>
  <line x1="580" y1="1650" x2="580" y2="1700" class="arrow"/>
  <line x1="1410" y1="310" x2="1410" y2="350" class="arrow"/>
  <path d="M 1110 460 L 1070 460 L 1070 705 L 1030 705" class="arrow"/>

  <rect x="1110" y="620" rx="18" ry="18" width="600" height="240" fill="#fff8ef" stroke="#c05621" stroke-width="2.5"/>
  <text x="1140" y="658" class="note-title">LLM 使用位置</text>
  <text x="1140" y="690" class="note-text">1. Event Parser：结构化事件语义</text>
  <text x="1140" y="720" class="note-text">2. Feature Builder：小候选池语义评分</text>
  <text x="1140" y="750" class="note-text">3. Selector：shortlist 重排与角色建议</text>
  <text x="1140" y="780" class="note-text">4. Eval Output：正文与画像等自然语言字段增强</text>
  <text x="1140" y="810" class="note-text">Strategy Generator 本身仍是规则模板，不直接调用 LLM</text>
  <text x="1140" y="840" class="note-text">原则：规则做全量检索，LLM 做局部增强，避免直接扫全库</text>

  <rect x="1110" y="900" rx="18" ry="18" width="600" height="260" fill="#eef4fb" stroke="#4c6f8c" stroke-width="2.5"/>
  <text x="1140" y="938" class="box-title">中间产物与调试输出</text>
  <text x="1140" y="970" class="box-text">`tests/pipeline_step_outputs/&lt;event_id&gt;/`</text>
  <text x="1140" y="1000" class="box-text">`00_hot_event_input.json` 原始热点评测输入</text>
  <text x="1140" y="1030" class="box-text">`01_pipeline_payload.json` 标准化流水线输入</text>
  <text x="1140" y="1060" class="box-text">`02_event_parser_output.json` 事件解析结果</text>
  <text x="1140" y="1090" class="box-text">`03_feature_builder_output.json` 候选特征预览</text>
  <text x="1140" y="1120" class="box-text">`04_scorer_output.json` 评分与风险结果</text>
  <text x="1140" y="1150" class="box-text">`05_selector_output.json` 主选 / 备选节点</text>

  <rect x="1110" y="1210" rx="18" ry="18" width="600" height="330" fill="#eefbf3" stroke="#2f855a" stroke-width="2.5"/>
  <text x="1140" y="1248" class="box-title">当前版本的关键改动</text>
  <text x="1140" y="1280" class="box-text">1. 新增 `scripts/build_compact_dataset.py`，保留节点集合，删除大块冗余字段</text>
  <text x="1140" y="1310" class="box-text">2. `DataLoader` 默认优先读取 compact 数据集，减轻后续处理负担</text>
  <text x="1140" y="1340" class="box-text">3. 最终 JSON 从“文字策略描述”升级为“动作清单”</text>
  <text x="1140" y="1370" class="box-text">4. 互动策略不再只写文本，而是显式输出点赞 / 评论 / 回复 / 监测 / 暂停等动作</text>
  <text x="1140" y="1400" class="box-text">5. 协同策略不再只说“联动”，而是明确要对哪个数字人执行什么动作</text>
  <text x="1140" y="1430" class="box-text">6. 输出结构更适合后续接自动执行器或前端控制台</text>
  <text x="1140" y="1460" class="box-text">7. `run_eval.py` 控制台摘要已兼容新的字段名</text>
  <text x="1140" y="1490" class="box-text">8. 示例输出：`hot_event_001_strategy_output.json` 已切换到新 schema</text>
  <text x="1140" y="1520" class="box-text">9. `eval/output/output.md` 已同步更新为 action_schema_v2 说明</text>

  <rect x="1110" y="1590" rx="18" ry="18" width="600" height="300" fill="#fff8ef" stroke="#c05621" stroke-width="2.5"/>
  <text x="1140" y="1628" class="note-title">最终输出示意</text>
  <text x="1140" y="1660" class="note-text">顶层：`事件名称` `输出格式版本` `选取数字人id组` `策略概览`</text>
  <text x="1140" y="1690" class="note-text">节点层：</text>
  <text x="1140" y="1720" class="note-text">`节点角色`：角色、阶段、优先级、节点得分</text>
  <text x="1140" y="1750" class="note-text">`执行目标`：传播目标、群体画像、主题关键词</text>
  <text x="1140" y="1780" class="note-text">`内容发布动作`：publish_post / quote_repost / publish_support_post ...</text>
  <text x="1140" y="1810" class="note-text">`受众互动动作`：monitor_comments / like_comment / reply_comment ...</text>
  <text x="1140" y="1840" class="note-text">`数字人协同动作`：comment_on_post / like_post / reply_agent_comment ...</text>
  <text x="1140" y="1870" class="note-text">`风险控制动作`：monitor_sentiment / pause_dispatch_if_needed</text>

  <rect x="120" y="2110" rx="12" ry="12" width="470" height="48" fill="#edf6ff" stroke="#2f80ed" stroke-width="2"/>
  <text x="355" y="2141" text-anchor="middle" class="legend">蓝框：主流程 / 规则编排</text>
  <rect x="665" y="2110" rx="12" ry="12" width="470" height="48" fill="#fff4e5" stroke="#d97706" stroke-width="2"/>
  <text x="900" y="2141" text-anchor="middle" class="legend">橙框：可选 LLM 增强步骤</text>
  <rect x="1210" y="2110" rx="12" ry="12" width="470" height="48" fill="#eefbf3" stroke="#2f855a" stroke-width="2"/>
  <text x="1445" y="2141" text-anchor="middle" class="legend">绿框：数据层 / 新增 compact 数据集</text>
</svg>
